<svg xmlns="http://www.w3.org/2000/svg" xml:space="preserve" viewBox="0 0 2200 2200"><path d="M0 0h2200v2200H0z" style="fill:#fff"/><path d="M1459.833 1363.999c49.643-75.037 80.18-167.819 90.763-275.768v-.004c7.588-77.476 4.548-154.568.133-226.336-2.841-46.205-34.937-84.831-79.864-96.115-178.97-44.95-268.441-100.505-305.846-129.621-38.281-29.798-91.754-29.799-130.037 0-37.404 29.116-126.876 84.671-305.847 129.621-44.927 11.285-77.022 49.91-79.863 96.115-4.415 71.769-7.455 148.861.133 226.341 10.583 107.949 41.12 200.731 90.762 275.766 33.199 50.188 79.642 98.421 138.037 143.357 49.719 38.259 108.45 74.445 174.564 107.555 14.788 7.404 31.01 11.107 47.232 11.107s32.444-3.703 47.232-11.108c66.114-33.108 124.846-69.295 174.564-107.554 58.396-44.937 104.839-93.169 138.037-143.356m-180.727 87.88c-46.181 35.537-101.095 69.329-163.218 100.439-9.949 4.98-21.828 4.98-31.777 0-62.123-31.11-117.037-64.902-163.218-100.439-52.257-40.213-93.42-82.774-122.346-126.503-43.28-65.419-70.02-147.504-79.478-243.971-7.109-72.596-4.168-146.34.068-215.217.962-15.629 11.831-28.699 27.048-32.521 82.163-20.636 234.522-66.56 331.793-142.274a35.8 35.8 0 0 1 22.021-7.569 35.8 35.8 0 0 1 22.021 7.569c97.27 75.714 249.629 121.639 331.791 142.274 15.218 3.822 26.087 16.891 27.049 32.521 4.236 68.877 7.178 142.621.068 215.213-9.458 96.471-36.197 178.556-79.479 243.977-28.923 43.726-70.086 86.288-122.343 126.501" style="fill:#4ac2cc"/><path d="M1100 949.369c-53.996 0-97.77 43.775-97.77 97.77 0 36.758 20.285 68.776 50.276 85.473l-15.651 128.99c-1.968 16.233 10.703 30.539 27.052 30.539h72.188c16.349 0 29.02-14.307 27.052-30.539l-15.651-128.99c29.991-16.698 50.276-48.715 50.276-85.473-.002-53.996-43.776-97.77-97.772-97.77M1075 379.33v217.02c8.2-1.68 16.58-2.54 25-2.54s16.8.86 25 2.54V379.921c27.923-9.95 47.917-36.609 47.917-67.949 0-39.834-32.292-72.126-72.126-72.126s-72.126 32.292-72.126 72.126c0 30.743 19.243 56.977 46.335 67.358M1899.148 1004.569c-30.742 0-56.975 19.241-67.357 46.331H1573.51c-.72 12.73-1.67 25.5-2.91 38.3l-.1.98c-.35 3.59-.73 7.16-1.12 10.72h261.818c9.949 27.926 36.609 47.921 67.95 47.921 39.834 0 72.126-32.292 72.126-72.126s-32.292-72.126-72.126-72.126M1839.94 735.263v78.948c0 8.27-6.73 15-15 15h-260.22c3.26 10.01 5.3 20.55 5.97 31.45.38 6.14.75 12.33 1.1 18.55h253.15c35.84 0 65-29.16 65-65v-78.945c27.513-10.166 47.13-36.626 47.13-67.672 0-39.834-32.292-72.126-72.126-72.126s-72.126 32.292-72.126 72.126c0 31.043 19.613 57.5 47.122 67.669M1376.16 717.52l-.01-221.3c0-8.27 6.73-15 15-15h218.497c10.167 27.513 36.626 47.129 67.671 47.129 39.834 0 72.126-32.292 72.126-72.126s-32.292-72.126-72.126-72.126c-31.043 0-57.501 19.614-67.669 47.123h-218.5c-35.84 0-65 29.16-65 65l.01 203.28a1072 1072 0 0 0 50.001 18.02M1125 1820.079V1643.5c-8.21 1.66-16.6 2.52-25 2.52s-16.79-.86-25-2.52v177.17c-27.092 10.38-46.335 36.615-46.335 67.358 0 39.834 32.292 72.126 72.126 72.126s72.126-32.292 72.126-72.126c0-31.339-19.994-57.999-47.917-67.949M1889.94 1418.125v-78.945c0-35.84-29.16-65-65-65H1528.3c-6.71 17.28-14.13 33.95-22.27 50h318.91c8.27 0 15 6.73 15 15v78.948c-27.509 10.168-47.122 36.626-47.122 67.669 0 39.834 32.292 72.126 72.126 72.126s72.126-32.292 72.126-72.126c-.001-31.046-19.617-57.506-47.13-67.672M1677.319 1625.041c-31.045 0-57.505 19.616-67.671 47.129H1391.15c-8.27 0-15-6.73-15-15l.01-168.77c-13.31 11.81-27.37 23.41-42.17 34.8-2.59 1.99-5.2 3.97-7.83 5.95l-.01 128.02c0 35.84 29.16 65 65 65h218.5c10.168 27.509 36.626 47.123 67.669 47.123 39.834 0 72.126-32.292 72.126-72.126s-32.292-72.126-72.126-72.126M368.803 1100.9H630.62c-.39-3.56-.77-7.13-1.12-10.72a953 953 0 0 1-3-39.28H368.209c-10.381-27.09-36.615-46.331-67.357-46.331-39.834 0-72.126 32.292-72.126 72.126s32.292 72.126 72.126 72.126c31.341 0 58.002-19.995 67.951-47.921M310.06 735.266v78.945c0 35.84 29.16 65 65 65h253.15c.35-6.22.72-12.4 1.1-18.55.67-10.9 2.71-21.44 5.97-31.45H375.06c-8.27 0-15-6.73-15-15v-78.948c27.509-10.168 47.122-36.626 47.122-67.669 0-39.834-32.292-72.126-72.126-72.126s-72.126 32.292-72.126 72.126c.001 31.045 19.617 57.505 47.13 67.672M522.681 528.349c31.045 0 57.505-19.617 67.671-47.129H808.85c8.27 0 15 6.73 15 15l-.01 221.3c17.98-5.99 34.61-12.03 50-18.02l.01-203.28c0-35.84-29.16-65-65-65h-218.5c-10.168-27.509-36.626-47.123-67.669-47.123-39.834 0-72.126 32.292-72.126 72.126s32.292 72.126 72.126 72.126M360.06 1418.128v-78.948c0-8.27 6.73-15 15-15h318.91c-8.14-16.05-15.56-32.72-22.27-50H375.06c-35.84 0-65 29.16-65 65v78.945c-27.513 10.166-47.129 36.626-47.129 67.672 0 39.834 32.292 72.126 72.126 72.126s72.126-32.292 72.126-72.126c-.001-31.043-19.614-57.501-47.123-67.669M866.01 1523.2c-14.8-11.39-28.86-22.99-42.17-34.8l.01 168.77c0 8.27-6.73 15-15 15H590.352c-10.167-27.512-36.626-47.129-67.671-47.129-39.834 0-72.126 32.292-72.126 72.126s32.292 72.126 72.126 72.126c31.043 0 57.501-19.614 67.669-47.123h218.5c35.84 0 65-29.16 65-65l-.01-128.02c-2.63-1.98-5.24-3.96-7.83-5.95" style="fill:#293d7f"/></svg>